# xmcd CD database file
#
# Track frame offsets:
#	150
#	29297
#	48340
#	57662
#	77773
#	97695
#	111350
#	124671
#	142514
#	155085
#	183965
#
# Disc length: 2854 seconds
#
# Revision: 0
# Processed by: cddbd v1.5.1PL0 Copyright (c) Steve Scherf et al.
# Submitted via: CDex 1.51
#
DISCID=870b240b
DTITLE=Kazutoki Umezu - Show the Frog
DYEAR=2005
DGENRE=Jazz
TTITLE0=I Want to Talk About You
TTITLE1=The Star of the Country Down
TTITLE2=A Lonely Dolphin
TTITLE3=The Captured Two Rabbits
TTITLE4=A Nakht in Gn Eydn
TTITLE5=1970
TTITLE6=Chakton
TTITLE7=Kamifusen
TTITLE8=In Walked Bud
TTITLE9=Show the Frog
TTITLE10=Moon Cat
EXTD=YEAR: 2005
EXTT0=
EXTT1=
EXTT2=
EXTT3=
EXTT4=
EXTT5=
EXTT6=
EXTT7=
EXTT8=
EXTT9=
EXTT10=
PLAYORDER=
